<?xml version="1.0" encoding="UTF-8" standalone="no"?>
<!DOCTYPE svg PUBLIC "-//W3C//DTD SVG 1.1//EN"
 "http://www.w3.org/Graphics/SVG/1.1/DTD/svg11.dtd">
<!-- Generated by graphviz version 2.43.0 (0)
 -->
<!-- Title: dependency&#45;cruiser output Pages: 1 -->
<svg width="308pt" height="657pt"
 viewBox="0.00 0.00 307.59 657.00" xmlns="http://www.w3.org/2000/svg" xmlns:xlink="http://www.w3.org/1999/xlink">
<g id="graph0" class="graph" transform="scale(1 1) rotate(0) translate(4 653)">
<title>dependency&#45;cruiser output</title>
<polygon fill="white" stroke="transparent" points="-4,4 -4,-653 303.59,-653 303.59,4 -4,4"/>
<g id="clust1" class="cluster">
<title>cluster_src</title>
<path fill="#ffffff" stroke="black" stroke-width="2" d="M20,-25.5C20,-25.5 279.59,-25.5 279.59,-25.5 285.59,-25.5 291.59,-31.5 291.59,-37.5 291.59,-37.5 291.59,-611.5 291.59,-611.5 291.59,-617.5 285.59,-623.5 279.59,-623.5 279.59,-623.5 20,-623.5 20,-623.5 14,-623.5 8,-617.5 8,-611.5 8,-611.5 8,-37.5 8,-37.5 8,-31.5 14,-25.5 20,-25.5"/>
<text text-anchor="middle" x="149.8" y="-612.3" font-family="Helvetica,sans-Serif" font-weight="bold" font-size="9.00">src</text>
</g>
<g id="clust2" class="cluster">
<title>cluster_src/help</title>
<path fill="#ffffff" stroke="black" stroke-width="2" d="M37.77,-547.5C37.77,-547.5 184.56,-547.5 184.56,-547.5 190.56,-547.5 196.56,-553.5 196.56,-559.5 196.56,-559.5 196.56,-586.5 196.56,-586.5 196.56,-592.5 190.56,-598.5 184.56,-598.5 184.56,-598.5 37.77,-598.5 37.77,-598.5 31.77,-598.5 25.77,-592.5 25.77,-586.5 25.77,-586.5 25.77,-559.5 25.77,-559.5 25.77,-553.5 31.77,-547.5 37.77,-547.5"/>
<text text-anchor="middle" x="111.16" y="-587.3" font-family="Helvetica,sans-Serif" font-weight="bold" font-size="9.00">help</text>
</g>
<g id="clust3" class="cluster">
<title>cluster_src/injected</title>
<path fill="#ffffff" stroke="black" stroke-width="2" d="M32,-488.5C32,-488.5 89.54,-488.5 89.54,-488.5 95.54,-488.5 101.54,-494.5 101.54,-500.5 101.54,-500.5 101.54,-527.5 101.54,-527.5 101.54,-533.5 95.54,-539.5 89.54,-539.5 89.54,-539.5 32,-539.5 32,-539.5 26,-539.5 20,-533.5 20,-527.5 20,-527.5 20,-500.5 20,-500.5 20,-494.5 26,-488.5 32,-488.5"/>
<text text-anchor="middle" x="60.77" y="-528.3" font-family="Helvetica,sans-Serif" font-weight="bold" font-size="9.00">injected</text>
</g>
<g id="clust4" class="cluster">
<title>cluster_src/options</title>
<path fill="#ffffff" stroke="black" stroke-width="2" d="M37.77,-403.5C37.77,-403.5 184.56,-403.5 184.56,-403.5 190.56,-403.5 196.56,-409.5 196.56,-415.5 196.56,-415.5 196.56,-442.5 196.56,-442.5 196.56,-448.5 190.56,-454.5 184.56,-454.5 184.56,-454.5 37.77,-454.5 37.77,-454.5 31.77,-454.5 25.77,-448.5 25.77,-442.5 25.77,-442.5 25.77,-415.5 25.77,-415.5 25.77,-409.5 31.77,-403.5 37.77,-403.5"/>
<text text-anchor="middle" x="111.16" y="-443.3" font-family="Helvetica,sans-Serif" font-weight="bold" font-size="9.00">options</text>
</g>
<g id="clust5" class="cluster">
<title>cluster_src/popup</title>
<path fill="#ffffff" stroke="black" stroke-width="2" d="M37.77,-146.5C37.77,-146.5 184.56,-146.5 184.56,-146.5 190.56,-146.5 196.56,-152.5 196.56,-158.5 196.56,-158.5 196.56,-185.5 196.56,-185.5 196.56,-191.5 190.56,-197.5 184.56,-197.5 184.56,-197.5 37.77,-197.5 37.77,-197.5 31.77,-197.5 25.77,-191.5 25.77,-185.5 25.77,-185.5 25.77,-158.5 25.77,-158.5 25.77,-152.5 31.77,-146.5 37.77,-146.5"/>
<text text-anchor="middle" x="111.16" y="-186.3" font-family="Helvetica,sans-Serif" font-weight="bold" font-size="9.00">popup</text>
</g>
<g id="clust6" class="cluster">
<title>cluster_src/styles</title>
<path fill="#ffffff" stroke="black" stroke-width="2" d="M127.3,-61.5C127.3,-61.5 190.31,-61.5 190.31,-61.5 196.31,-61.5 202.31,-67.5 202.31,-73.5 202.31,-73.5 202.31,-100.5 202.31,-100.5 202.31,-106.5 196.31,-112.5 190.31,-112.5 190.31,-112.5 127.3,-112.5 127.3,-112.5 121.3,-112.5 115.3,-106.5 115.3,-100.5 115.3,-100.5 115.3,-73.5 115.3,-73.5 115.3,-67.5 121.3,-61.5 127.3,-61.5"/>
<text text-anchor="middle" x="158.8" y="-101.3" font-family="Helvetica,sans-Serif" font-weight="bold" font-size="9.00">styles</text>
</g>
<g id="clust7" class="cluster">
<title>cluster_src/utils</title>
<path fill="#ffffff" stroke="black" stroke-width="2" d="M135.29,-231.5C135.29,-231.5 271.59,-231.5 271.59,-231.5 277.59,-231.5 283.59,-237.5 283.59,-243.5 283.59,-243.5 283.59,-328.5 283.59,-328.5 283.59,-334.5 277.59,-340.5 271.59,-340.5 271.59,-340.5 135.29,-340.5 135.29,-340.5 129.29,-340.5 123.29,-334.5 123.29,-328.5 123.29,-328.5 123.29,-243.5 123.29,-243.5 123.29,-237.5 129.29,-231.5 135.29,-231.5"/>
<text text-anchor="middle" x="203.44" y="-329.3" font-family="Helvetica,sans-Serif" font-weight="bold" font-size="9.00">utils</text>
</g>
<!-- document -->
<g id="node1" class="node">
<title>document</title>
<path fill="#ffffcc" stroke="red" d="M265.69,-649C265.69,-649 221.97,-649 221.97,-649 219.14,-649 216.3,-646.17 216.3,-643.33 216.3,-643.33 216.3,-637.67 216.3,-637.67 216.3,-634.83 219.14,-632 221.97,-632 221.97,-632 265.69,-632 265.69,-632 268.52,-632 271.36,-634.83 271.36,-637.67 271.36,-637.67 271.36,-643.33 271.36,-643.33 271.36,-646.17 268.52,-649 265.69,-649"/>
<text text-anchor="middle" x="243.83" y="-637.8" font-family="Helvetica,sans-Serif" font-size="9.00" fill="red">document</text>
</g>
<!-- src/background.js -->
<g id="node2" class="node">
<title>src/background.js</title>
<g id="a_node2"><a xlink:href="src/background.js" xlink:title="background.js">
<path fill="#ffffcc" stroke="black" d="M189.17,-366C189.17,-366 128.43,-366 128.43,-366 125.6,-366 122.77,-363.17 122.77,-360.33 122.77,-360.33 122.77,-354.67 122.77,-354.67 122.77,-351.83 125.6,-349 128.43,-349 128.43,-349 189.17,-349 189.17,-349 192,-349 194.84,-351.83 194.84,-354.67 194.84,-354.67 194.84,-360.33 194.84,-360.33 194.84,-363.17 192,-366 189.17,-366"/>
<text text-anchor="middle" x="158.8" y="-354.8" font-family="Helvetica,sans-Serif" font-size="9.00">background.js</text>
</a>
</g>
</g>
<!-- src/utils/extension.js -->
<g id="node3" class="node">
<title>src/utils/extension.js</title>
<g id="a_node3"><a xlink:href="src/utils/extension.js" xlink:title="extension.js">
<path fill="#ffffcc" stroke="black" d="M269.69,-300C269.69,-300 217.97,-300 217.97,-300 215.14,-300 212.3,-297.17 212.3,-294.33 212.3,-294.33 212.3,-288.67 212.3,-288.67 212.3,-285.83 215.14,-283 217.97,-283 217.97,-283 269.69,-283 269.69,-283 272.53,-283 275.36,-285.83 275.36,-288.67 275.36,-288.67 275.36,-294.33 275.36,-294.33 275.36,-297.17 272.53,-300 269.69,-300"/>
<text text-anchor="middle" x="243.83" y="-288.8" font-family="Helvetica,sans-Serif" font-size="9.00">extension.js</text>
</a>
</g>
</g>
<!-- src/background.js&#45;&gt;src/utils/extension.js -->
<g id="edge1" class="edge">
<title>src/background.js&#45;&gt;src/utils/extension.js</title>
<path fill="none" stroke="#000000" stroke-width="2" stroke-opacity="0.200000" d="M192.79,-348.85C196.14,-347.33 199.39,-345.56 202.31,-343.5 216.46,-333.53 228.04,-317.19 235.14,-305.49"/>
<polygon fill="#000000" fill-opacity="0.200000" stroke="#000000" stroke-width="2" stroke-opacity="0.200000" points="237.04,-306.4 238.26,-300.16 233.41,-304.28 237.04,-306.4"/>
</g>
<!-- src/contentscript.js -->
<g id="node4" class="node">
<title>src/contentscript.js</title>
<g id="a_node4"><a xlink:href="src/contentscript.js" xlink:title="contentscript.js">
<path fill="#ffffcc" stroke="black" d="M191.16,-395C191.16,-395 126.44,-395 126.44,-395 123.61,-395 120.78,-392.17 120.78,-389.33 120.78,-389.33 120.78,-383.67 120.78,-383.67 120.78,-380.83 123.61,-378 126.44,-378 126.44,-378 191.16,-378 191.16,-378 193.99,-378 196.83,-380.83 196.83,-383.67 196.83,-383.67 196.83,-389.33 196.83,-389.33 196.83,-392.17 193.99,-395 191.16,-395"/>
<text text-anchor="middle" x="158.8" y="-383.8" font-family="Helvetica,sans-Serif" font-size="9.00">contentscript.js</text>
</a>
</g>
</g>
<!-- src/contentscript.js&#45;&gt;document -->
<g id="edge3" class="edge">
<title>src/contentscript.js&#45;&gt;document</title>
<path fill="none" stroke="#000000" stroke-width="2" stroke-opacity="0.200000" d="M195.98,-395.05C198.33,-396.58 200.49,-398.38 202.31,-400.5 231.71,-434.71 240.26,-578.79 242.28,-625.68"/>
<polygon fill="#000000" fill-opacity="0.200000" stroke="#000000" stroke-width="2" stroke-opacity="0.200000" points="240.19,-625.96 242.54,-631.87 244.39,-625.79 240.19,-625.96"/>
</g>
<!-- src/contentscript.js&#45;&gt;src/utils/extension.js -->
<g id="edge2" class="edge">
<title>src/contentscript.js&#45;&gt;src/utils/extension.js</title>
<path fill="none" stroke="#000000" stroke-width="2" stroke-opacity="0.200000" d="M194.07,-377.98C197.04,-376.44 199.84,-374.63 202.31,-372.5 222.76,-354.83 234.02,-324.37 239.21,-306.26"/>
<polygon fill="#000000" fill-opacity="0.200000" stroke="#000000" stroke-width="2" stroke-opacity="0.200000" points="241.31,-306.54 240.85,-300.2 237.25,-305.44 241.31,-306.54"/>
</g>
<!-- src/eventlisteners.js -->
<g id="node5" class="node">
<title>src/eventlisteners.js</title>
<g id="a_node5"><a xlink:href="src/eventlisteners.js" xlink:title="eventlisteners.js">
<path fill="#ffffcc" stroke="black" d="M193.17,-223C193.17,-223 124.44,-223 124.44,-223 121.61,-223 118.77,-220.17 118.77,-217.33 118.77,-217.33 118.77,-211.67 118.77,-211.67 118.77,-208.83 121.61,-206 124.44,-206 124.44,-206 193.17,-206 193.17,-206 196,-206 198.83,-208.83 198.83,-211.67 198.83,-211.67 198.83,-217.33 198.83,-217.33 198.83,-220.17 196,-223 193.17,-223"/>
<text text-anchor="middle" x="158.8" y="-211.8" font-family="Helvetica,sans-Serif" font-size="9.00">eventlisteners.js</text>
</a>
</g>
</g>
<!-- src/eventlisteners.js&#45;&gt;document -->
<g id="edge5" class="edge">
<title>src/eventlisteners.js&#45;&gt;document</title>
<path fill="none" stroke="#000000" stroke-width="2" stroke-opacity="0.200000" d="M196.56,-223.15C198.72,-224.66 200.67,-226.43 202.31,-228.5 210.26,-238.56 210.86,-330.73 212.07,-343.5 222.27,-451.77 236.41,-582.03 241.18,-625.54"/>
<polygon fill="#000000" fill-opacity="0.200000" stroke="#000000" stroke-width="2" stroke-opacity="0.200000" points="239.12,-626.02 241.87,-631.76 243.3,-625.57 239.12,-626.02"/>
</g>
<!-- src/eventlisteners.js&#45;&gt;src/utils/extension.js -->
<g id="edge4" class="edge">
<title>src/eventlisteners.js&#45;&gt;src/utils/extension.js</title>
<path fill="none" stroke="#000000" stroke-width="2" stroke-opacity="0.200000" d="M193.41,-223.1C196.58,-224.62 199.6,-226.41 202.31,-228.5 218.87,-241.32 230.62,-262.93 237.07,-277.21"/>
<polygon fill="#000000" fill-opacity="0.200000" stroke="#000000" stroke-width="2" stroke-opacity="0.200000" points="235.2,-278.16 239.51,-282.83 239.05,-276.49 235.2,-278.16"/>
</g>
<!-- window -->
<g id="node6" class="node">
<title>window</title>
<path fill="#ffffcc" stroke="red" d="M265.16,-17C265.16,-17 222.5,-17 222.5,-17 219.66,-17 216.83,-14.17 216.83,-11.33 216.83,-11.33 216.83,-5.67 216.83,-5.67 216.83,-2.83 219.66,0 222.5,0 222.5,0 265.16,0 265.16,0 268,0 270.83,-2.83 270.83,-5.67 270.83,-5.67 270.83,-11.33 270.83,-11.33 270.83,-14.17 268,-17 265.16,-17"/>
<text text-anchor="middle" x="243.83" y="-5.8" font-family="Helvetica,sans-Serif" font-size="9.00" fill="red">window</text>
</g>
<!-- src/eventlisteners.js&#45;&gt;window -->
<g id="edge6" class="edge">
<title>src/eventlisteners.js&#45;&gt;window</title>
<path fill="none" stroke="#000000" stroke-width="2" stroke-opacity="0.200000" d="M195.89,-205.87C198.26,-204.36 200.44,-202.58 202.31,-200.5 225.94,-174.11 237.92,-63.89 241.58,-23.45"/>
<polygon fill="#000000" fill-opacity="0.200000" stroke="#000000" stroke-width="2" stroke-opacity="0.200000" points="243.7,-23.33 242.14,-17.17 239.52,-22.96 243.7,-23.33"/>
</g>
<!-- src/help/index.js -->
<g id="node7" class="node">
<title>src/help/index.js</title>
<g id="a_node7"><a xlink:href="src/help/index.js" xlink:title="index.js">
<path fill="#ffffcc" stroke="black" d="M82.1,-573C82.1,-573 39.44,-573 39.44,-573 36.6,-573 33.77,-570.17 33.77,-567.33 33.77,-567.33 33.77,-561.67 33.77,-561.67 33.77,-558.83 36.6,-556 39.44,-556 39.44,-556 82.1,-556 82.1,-556 84.94,-556 87.77,-558.83 87.77,-561.67 87.77,-561.67 87.77,-567.33 87.77,-567.33 87.77,-570.17 84.94,-573 82.1,-573"/>
<text text-anchor="middle" x="60.77" y="-561.8" font-family="Helvetica,sans-Serif" font-size="9.00">index.js</text>
</a>
</g>
</g>
<!-- src/help/styles.scss -->
<g id="node8" class="node">
<title>src/help/styles.scss</title>
<g id="a_node8"><a xlink:href="src/help/styles.scss" xlink:title="styles.scss">
<path fill="#ffffcc" stroke="black" d="M182.64,-573C182.64,-573 134.96,-573 134.96,-573 132.13,-573 129.29,-570.17 129.29,-567.33 129.29,-567.33 129.29,-561.67 129.29,-561.67 129.29,-558.83 132.13,-556 134.96,-556 134.96,-556 182.64,-556 182.64,-556 185.48,-556 188.31,-558.83 188.31,-561.67 188.31,-561.67 188.31,-567.33 188.31,-567.33 188.31,-570.17 185.48,-573 182.64,-573"/>
<text text-anchor="middle" x="158.8" y="-561.8" font-family="Helvetica,sans-Serif" font-size="9.00">styles.scss</text>
</a>
</g>
</g>
<!-- src/help/index.js&#45;&gt;src/help/styles.scss -->
<g id="edge7" class="edge">
<title>src/help/index.js&#45;&gt;src/help/styles.scss</title>
<path fill="none" stroke="#000000" stroke-width="2" stroke-opacity="0.200000" d="M88.01,-564.5C98.79,-564.5 111.42,-564.5 122.96,-564.5"/>
<polygon fill="#000000" fill-opacity="0.200000" stroke="#000000" stroke-width="2" stroke-opacity="0.200000" points="123.23,-566.6 129.23,-564.5 123.23,-562.4 123.23,-566.6"/>
</g>
<!-- src/init.js -->
<g id="node9" class="node">
<title>src/init.js</title>
<g id="a_node9"><a xlink:href="src/init.js" xlink:title="init.js">
<path fill="#ccffcc" stroke="black" d="M82.1,-309C82.1,-309 39.44,-309 39.44,-309 36.6,-309 33.77,-306.17 33.77,-303.33 33.77,-303.33 33.77,-297.67 33.77,-297.67 33.77,-294.83 36.6,-292 39.44,-292 39.44,-292 82.1,-292 82.1,-292 84.94,-292 87.77,-294.83 87.77,-297.67 87.77,-297.67 87.77,-303.33 87.77,-303.33 87.77,-306.17 84.94,-309 82.1,-309"/>
<text text-anchor="middle" x="60.77" y="-297.8" font-family="Helvetica,sans-Serif" font-size="9.00">init.js</text>
</a>
</g>
</g>
<!-- src/inject.js -->
<g id="node10" class="node">
<title>src/inject.js</title>
<g id="a_node10"><a xlink:href="src/inject.js" xlink:title="inject.js">
<path fill="#ffffcc" stroke="black" d="M82.1,-480C82.1,-480 39.44,-480 39.44,-480 36.6,-480 33.77,-477.17 33.77,-474.33 33.77,-474.33 33.77,-468.67 33.77,-468.67 33.77,-465.83 36.6,-463 39.44,-463 39.44,-463 82.1,-463 82.1,-463 84.94,-463 87.77,-465.83 87.77,-468.67 87.77,-468.67 87.77,-474.33 87.77,-474.33 87.77,-477.17 84.94,-480 82.1,-480"/>
<text text-anchor="middle" x="60.77" y="-468.8" font-family="Helvetica,sans-Serif" font-size="9.00">inject.js</text>
</a>
</g>
</g>
<!-- src/inject.js&#45;&gt;document -->
<g id="edge8" class="edge">
<title>src/inject.js&#45;&gt;document</title>
<path fill="none" stroke="#000000" stroke-width="2" stroke-opacity="0.200000" d="M87.97,-474.54C94.67,-476.6 101.2,-479.98 105.54,-485.5 124.53,-509.68 94.24,-601.1 115.3,-623.5 139.01,-648.72 180.75,-649.64 210,-646.43"/>
<polygon fill="#000000" fill-opacity="0.200000" stroke="#000000" stroke-width="2" stroke-opacity="0.200000" points="210.34,-648.51 216.04,-645.69 209.83,-644.34 210.34,-648.51"/>
</g>
<!-- src/inject.js&#45;&gt;window -->
<g id="edge9" class="edge">
<title>src/inject.js&#45;&gt;window</title>
<path fill="none" stroke="#000000" stroke-width="2" stroke-opacity="0.200000" d="M88.14,-468.59C94.84,-466.53 101.33,-463.12 105.54,-457.5 132.12,-422.01 89.11,-94.29 115.3,-58.5 139.45,-25.49 164.56,-44.25 202.31,-28.5 208.39,-25.96 214.84,-22.94 220.77,-20.02"/>
<polygon fill="#000000" fill-opacity="0.200000" stroke="#000000" stroke-width="2" stroke-opacity="0.200000" points="222.06,-21.72 226.49,-17.15 220.18,-17.96 222.06,-21.72"/>
</g>
<!-- src/injected/pageshow.js -->
<g id="node11" class="node">
<title>src/injected/pageshow.js</title>
<g id="a_node11"><a xlink:href="src/injected/pageshow.js" xlink:title="pageshow.js">
<path fill="#ccffcc" stroke="black" d="M87.64,-514C87.64,-514 33.89,-514 33.89,-514 31.06,-514 28.23,-511.17 28.23,-508.33 28.23,-508.33 28.23,-502.67 28.23,-502.67 28.23,-499.83 31.06,-497 33.89,-497 33.89,-497 87.64,-497 87.64,-497 90.48,-497 93.31,-499.83 93.31,-502.67 93.31,-502.67 93.31,-508.33 93.31,-508.33 93.31,-511.17 90.48,-514 87.64,-514"/>
<text text-anchor="middle" x="60.77" y="-502.8" font-family="Helvetica,sans-Serif" font-size="9.00">pageshow.js</text>
</a>
</g>
</g>
<!-- src/listeners.js -->
<g id="node12" class="node">
<title>src/listeners.js</title>
<g id="a_node12"><a xlink:href="src/listeners.js" xlink:title="listeners.js">
<path fill="#ccffcc" stroke="black" d="M84.12,-138C84.12,-138 37.42,-138 37.42,-138 34.59,-138 31.75,-135.17 31.75,-132.33 31.75,-132.33 31.75,-126.67 31.75,-126.67 31.75,-123.83 34.59,-121 37.42,-121 37.42,-121 84.12,-121 84.12,-121 86.95,-121 89.78,-123.83 89.78,-126.67 89.78,-126.67 89.78,-132.33 89.78,-132.33 89.78,-135.17 86.95,-138 84.12,-138"/>
<text text-anchor="middle" x="60.77" y="-126.8" font-family="Helvetica,sans-Serif" font-size="9.00">listeners.js</text>
</a>
</g>
</g>
<!-- src/livereload.js -->
<g id="node13" class="node">
<title>src/livereload.js</title>
<g id="a_node13"><a xlink:href="src/livereload.js" xlink:title="livereload.js">
<path fill="#ffffcc" stroke="black" d="M184.66,-138C184.66,-138 132.95,-138 132.95,-138 130.11,-138 127.28,-135.17 127.28,-132.33 127.28,-132.33 127.28,-126.67 127.28,-126.67 127.28,-123.83 130.11,-121 132.95,-121 132.95,-121 184.66,-121 184.66,-121 187.49,-121 190.33,-123.83 190.33,-126.67 190.33,-126.67 190.33,-132.33 190.33,-132.33 190.33,-135.17 187.49,-138 184.66,-138"/>
<text text-anchor="middle" x="158.8" y="-126.8" font-family="Helvetica,sans-Serif" font-size="9.00">livereload.js</text>
</a>
</g>
</g>
<!-- src/livereload.js&#45;&gt;src/utils/extension.js -->
<g id="edge10" class="edge">
<title>src/livereload.js&#45;&gt;src/utils/extension.js</title>
<path fill="none" stroke="#000000" stroke-width="2" stroke-opacity="0.200000" d="M190.75,-135.61C195.06,-137.56 199.1,-140.12 202.31,-143.5 237.99,-181.04 242.85,-246.92 243.12,-276.44"/>
<polygon fill="#000000" fill-opacity="0.200000" stroke="#000000" stroke-width="2" stroke-opacity="0.200000" points="241.02,-276.81 243.11,-282.81 245.22,-276.81 241.02,-276.81"/>
</g>
<!-- src/options/index.js -->
<g id="node14" class="node">
<title>src/options/index.js</title>
<g id="a_node14"><a xlink:href="src/options/index.js" xlink:title="index.js">
<path fill="#ffffcc" stroke="black" d="M82.1,-429C82.1,-429 39.44,-429 39.44,-429 36.6,-429 33.77,-426.17 33.77,-423.33 33.77,-423.33 33.77,-417.67 33.77,-417.67 33.77,-414.83 36.6,-412 39.44,-412 39.44,-412 82.1,-412 82.1,-412 84.94,-412 87.77,-414.83 87.77,-417.67 87.77,-417.67 87.77,-423.33 87.77,-423.33 87.77,-426.17 84.94,-429 82.1,-429"/>
<text text-anchor="middle" x="60.77" y="-417.8" font-family="Helvetica,sans-Serif" font-size="9.00">index.js</text>
</a>
</g>
</g>
<!-- src/utils/i18n.js -->
<g id="node15" class="node">
<title>src/utils/i18n.js</title>
<g id="a_node15"><a xlink:href="src/utils/i18n.js" xlink:title="i18n.js">
<path fill="#ffffcc" stroke="black" d="M180.14,-286C180.14,-286 137.47,-286 137.47,-286 134.64,-286 131.8,-283.17 131.8,-280.33 131.8,-280.33 131.8,-274.67 131.8,-274.67 131.8,-271.83 134.64,-269 137.47,-269 137.47,-269 180.14,-269 180.14,-269 182.97,-269 185.8,-271.83 185.8,-274.67 185.8,-274.67 185.8,-280.33 185.8,-280.33 185.8,-283.17 182.97,-286 180.14,-286"/>
<text text-anchor="middle" x="158.8" y="-274.8" font-family="Helvetica,sans-Serif" font-size="9.00">i18n.js</text>
</a>
</g>
</g>
<!-- src/options/index.js&#45;&gt;src/utils/i18n.js -->
<g id="edge11" class="edge">
<title>src/options/index.js&#45;&gt;src/utils/i18n.js</title>
<path fill="none" stroke="#000000" stroke-width="2" stroke-opacity="0.200000" d="M87.85,-418.67C94.55,-416.92 101.11,-413.83 105.54,-408.5 122.08,-388.61 99.48,-312.97 115.3,-292.5 118.06,-288.92 121.74,-286.2 125.78,-284.12"/>
<polygon fill="#000000" fill-opacity="0.200000" stroke="#000000" stroke-width="2" stroke-opacity="0.200000" points="126.79,-285.97 131.47,-281.67 125.12,-282.12 126.79,-285.97"/>
</g>
<!-- src/utils/storage.js -->
<g id="node16" class="node">
<title>src/utils/storage.js</title>
<g id="a_node16"><a xlink:href="src/utils/storage.js" xlink:title="storage.js">
<path fill="#ffffcc" stroke="black" d="M180.66,-315C180.66,-315 136.95,-315 136.95,-315 134.12,-315 131.28,-312.17 131.28,-309.33 131.28,-309.33 131.28,-303.67 131.28,-303.67 131.28,-300.83 134.12,-298 136.95,-298 136.95,-298 180.66,-298 180.66,-298 183.49,-298 186.32,-300.83 186.32,-303.67 186.32,-303.67 186.32,-309.33 186.32,-309.33 186.32,-312.17 183.49,-315 180.66,-315"/>
<text text-anchor="middle" x="158.8" y="-303.8" font-family="Helvetica,sans-Serif" font-size="9.00">storage.js</text>
</a>
</g>
</g>
<!-- src/options/index.js&#45;&gt;src/utils/storage.js -->
<g id="edge12" class="edge">
<title>src/options/index.js&#45;&gt;src/utils/storage.js</title>
<path fill="none" stroke="#000000" stroke-width="2" stroke-opacity="0.200000" d="M88.22,-418.47C94.76,-416.7 101.14,-413.66 105.54,-408.5 131.36,-378.22 89.92,-350.15 115.3,-319.5 118.01,-316.23 121.52,-313.76 125.37,-311.9"/>
<polygon fill="#000000" fill-opacity="0.200000" stroke="#000000" stroke-width="2" stroke-opacity="0.200000" points="126.38,-313.76 131.18,-309.6 124.83,-309.86 126.38,-313.76"/>
</g>
<!-- src/options/styles.scss -->
<g id="node17" class="node">
<title>src/options/styles.scss</title>
<g id="a_node17"><a xlink:href="src/options/styles.scss" xlink:title="styles.scss">
<path fill="#ffffcc" stroke="black" d="M182.64,-429C182.64,-429 134.96,-429 134.96,-429 132.13,-429 129.29,-426.17 129.29,-423.33 129.29,-423.33 129.29,-417.67 129.29,-417.67 129.29,-414.83 132.13,-412 134.96,-412 134.96,-412 182.64,-412 182.64,-412 185.48,-412 188.31,-414.83 188.31,-417.67 188.31,-417.67 188.31,-423.33 188.31,-423.33 188.31,-426.17 185.48,-429 182.64,-429"/>
<text text-anchor="middle" x="158.8" y="-417.8" font-family="Helvetica,sans-Serif" font-size="9.00">styles.scss</text>
</a>
</g>
</g>
<!-- src/options/index.js&#45;&gt;src/options/styles.scss -->
<g id="edge13" class="edge">
<title>src/options/index.js&#45;&gt;src/options/styles.scss</title>
<path fill="none" stroke="#000000" stroke-width="2" stroke-opacity="0.200000" d="M88.01,-420.5C98.79,-420.5 111.42,-420.5 122.96,-420.5"/>
<polygon fill="#000000" fill-opacity="0.200000" stroke="#000000" stroke-width="2" stroke-opacity="0.200000" points="123.23,-422.6 129.23,-420.5 123.23,-418.4 123.23,-422.6"/>
</g>
<!-- src/utils/i18n.js&#45;&gt;src/utils/extension.js -->
<g id="edge19" class="edge">
<title>src/utils/i18n.js&#45;&gt;src/utils/extension.js</title>
<path fill="none" stroke="#000000" stroke-width="2" stroke-opacity="0.200000" d="M186.07,-281.93C192.4,-283 199.28,-284.16 205.99,-285.29"/>
<polygon fill="#000000" fill-opacity="0.200000" stroke="#000000" stroke-width="2" stroke-opacity="0.200000" points="205.83,-287.39 212.09,-286.32 206.52,-283.25 205.83,-287.39"/>
</g>
<!-- src/utils/storage.js&#45;&gt;src/utils/extension.js -->
<g id="edge20" class="edge">
<title>src/utils/storage.js&#45;&gt;src/utils/extension.js</title>
<path fill="none" stroke="#000000" stroke-width="2" stroke-opacity="0.200000" d="M186.53,-301.67C192.77,-300.54 199.53,-299.32 206.12,-298.13"/>
<polygon fill="#000000" fill-opacity="0.200000" stroke="#000000" stroke-width="2" stroke-opacity="0.200000" points="206.58,-300.18 212.11,-297.05 205.83,-296.05 206.58,-300.18"/>
</g>
<!-- src/popup/index.js -->
<g id="node18" class="node">
<title>src/popup/index.js</title>
<g id="a_node18"><a xlink:href="src/popup/index.js" xlink:title="index.js">
<path fill="#ffffcc" stroke="black" d="M82.1,-172C82.1,-172 39.44,-172 39.44,-172 36.6,-172 33.77,-169.17 33.77,-166.33 33.77,-166.33 33.77,-160.67 33.77,-160.67 33.77,-157.83 36.6,-155 39.44,-155 39.44,-155 82.1,-155 82.1,-155 84.94,-155 87.77,-157.83 87.77,-160.67 87.77,-160.67 87.77,-166.33 87.77,-166.33 87.77,-169.17 84.94,-172 82.1,-172"/>
<text text-anchor="middle" x="60.77" y="-160.8" font-family="Helvetica,sans-Serif" font-size="9.00">index.js</text>
</a>
</g>
</g>
<!-- src/popup/index.js&#45;&gt;src/utils/i18n.js -->
<g id="edge14" class="edge">
<title>src/popup/index.js&#45;&gt;src/utils/i18n.js</title>
<path fill="none" stroke="#000000" stroke-width="2" stroke-opacity="0.200000" d="M87.79,-166.04C94.49,-167.94 101.06,-171.15 105.54,-176.5 130.51,-206.34 90.77,-233.3 115.3,-263.5 118.13,-266.98 121.84,-269.61 125.9,-271.58"/>
<polygon fill="#000000" fill-opacity="0.200000" stroke="#000000" stroke-width="2" stroke-opacity="0.200000" points="125.25,-273.58 131.6,-273.89 126.83,-269.69 125.25,-273.58"/>
</g>
<!-- src/popup/styles.scss -->
<g id="node19" class="node">
<title>src/popup/styles.scss</title>
<g id="a_node19"><a xlink:href="src/popup/styles.scss" xlink:title="styles.scss">
<path fill="#ffffcc" stroke="black" d="M182.64,-172C182.64,-172 134.96,-172 134.96,-172 132.13,-172 129.29,-169.17 129.29,-166.33 129.29,-166.33 129.29,-160.67 129.29,-160.67 129.29,-157.83 132.13,-155 134.96,-155 134.96,-155 182.64,-155 182.64,-155 185.48,-155 188.31,-157.83 188.31,-160.67 188.31,-160.67 188.31,-166.33 188.31,-166.33 188.31,-169.17 185.48,-172 182.64,-172"/>
<text text-anchor="middle" x="158.8" y="-160.8" font-family="Helvetica,sans-Serif" font-size="9.00">styles.scss</text>
</a>
</g>
</g>
<!-- src/popup/index.js&#45;&gt;src/popup/styles.scss -->
<g id="edge15" class="edge">
<title>src/popup/index.js&#45;&gt;src/popup/styles.scss</title>
<path fill="none" stroke="#000000" stroke-width="2" stroke-opacity="0.200000" d="M88.01,-163.5C98.79,-163.5 111.42,-163.5 122.96,-163.5"/>
<polygon fill="#000000" fill-opacity="0.200000" stroke="#000000" stroke-width="2" stroke-opacity="0.200000" points="123.23,-165.6 129.23,-163.5 123.23,-161.4 123.23,-165.6"/>
</g>
<!-- src/preview.js -->
<g id="node20" class="node">
<title>src/preview.js</title>
<g id="a_node20"><a xlink:href="src/preview.js" xlink:title="preview.js">
<path fill="#ffffcc" stroke="black" d="M82.62,-109C82.62,-109 38.91,-109 38.91,-109 36.08,-109 33.25,-106.17 33.25,-103.33 33.25,-103.33 33.25,-97.67 33.25,-97.67 33.25,-94.83 36.08,-92 38.91,-92 38.91,-92 82.62,-92 82.62,-92 85.46,-92 88.29,-94.83 88.29,-97.67 88.29,-97.67 88.29,-103.33 88.29,-103.33 88.29,-106.17 85.46,-109 82.62,-109"/>
<text text-anchor="middle" x="60.77" y="-97.8" font-family="Helvetica,sans-Serif" font-size="9.00">preview.js</text>
</a>
</g>
</g>
<!-- src/preview.js&#45;&gt;document -->
<g id="edge17" class="edge">
<title>src/preview.js&#45;&gt;document</title>
<path fill="none" stroke="#000000" stroke-width="2" stroke-opacity="0.200000" d="M88.65,-104.18C95.19,-106.4 101.47,-109.92 105.54,-115.5 121.46,-137.32 98.61,-580.27 115.3,-601.5 140.02,-632.95 164.3,-612.02 202.31,-624.5 206.96,-626.03 211.84,-627.8 216.55,-629.61"/>
<polygon fill="#000000" fill-opacity="0.200000" stroke="#000000" stroke-width="2" stroke-opacity="0.200000" points="216.03,-631.66 222.39,-631.89 217.56,-627.75 216.03,-631.66"/>
</g>
<!-- src/preview.js&#45;&gt;window -->
<g id="edge18" class="edge">
<title>src/preview.js&#45;&gt;window</title>
<path fill="none" stroke="#000000" stroke-width="2" stroke-opacity="0.200000" d="M88.5,-96.85C94.88,-94.77 101.11,-91.53 105.54,-86.5 121.36,-68.52 98.46,-50.53 115.3,-33.5 139.85,-8.66 181.34,-4.72 210.31,-5.49"/>
<polygon fill="#000000" fill-opacity="0.200000" stroke="#000000" stroke-width="2" stroke-opacity="0.200000" points="210.57,-7.6 216.65,-5.73 210.74,-3.4 210.57,-7.6"/>
</g>
<!-- src/styles/common.scss -->
<g id="node21" class="node">
<title>src/styles/common.scss</title>
<g id="a_node21"><a xlink:href="src/styles/common.scss" xlink:title="common.scss">
<path fill="#ffffcc" stroke="black" d="M188.65,-87C188.65,-87 128.96,-87 128.96,-87 126.13,-87 123.29,-84.17 123.29,-81.33 123.29,-81.33 123.29,-75.67 123.29,-75.67 123.29,-72.83 126.13,-70 128.96,-70 128.96,-70 188.65,-70 188.65,-70 191.48,-70 194.31,-72.83 194.31,-75.67 194.31,-75.67 194.31,-81.33 194.31,-81.33 194.31,-84.17 191.48,-87 188.65,-87"/>
<text text-anchor="middle" x="158.8" y="-75.8" font-family="Helvetica,sans-Serif" font-size="9.00">common.scss</text>
</a>
</g>
</g>
<!-- src/preview.js&#45;&gt;src/styles/common.scss -->
<g id="edge16" class="edge">
<title>src/preview.js&#45;&gt;src/styles/common.scss</title>
<path fill="none" stroke="#000000" stroke-width="2" stroke-opacity="0.200000" d="M88.52,-94.37C97.44,-92.33 107.58,-90.01 117.3,-87.78"/>
<polygon fill="#000000" fill-opacity="0.200000" stroke="#000000" stroke-width="2" stroke-opacity="0.200000" points="117.9,-89.79 123.28,-86.41 116.97,-85.7 117.9,-89.79"/>
</g>
<!-- src/preview_injector.js -->
<g id="node22" class="node">
<title>src/preview_injector.js</title>
<g id="a_node22"><a xlink:href="src/preview_injector.js" xlink:title="preview_injector.js">
<path fill="#ccffcc" stroke="black" d="M99.64,-80C99.64,-80 21.9,-80 21.9,-80 19.06,-80 16.23,-77.17 16.23,-74.33 16.23,-74.33 16.23,-68.67 16.23,-68.67 16.23,-65.83 19.06,-63 21.9,-63 21.9,-63 99.64,-63 99.64,-63 102.47,-63 105.31,-65.83 105.31,-68.67 105.31,-68.67 105.31,-74.33 105.31,-74.33 105.31,-77.17 102.47,-80 99.64,-80"/>
<text text-anchor="middle" x="60.77" y="-68.8" font-family="Helvetica,sans-Serif" font-size="9.00">preview_injector.js</text>
</a>
</g>
</g>
<!-- src/tabIndicator.js -->
<g id="node23" class="node">
<title>src/tabIndicator.js</title>
<g id="a_node23"><a xlink:href="src/tabIndicator.js" xlink:title="tabIndicator.js">
<path fill="#ccffcc" stroke="black" d="M90.64,-51C90.64,-51 30.9,-51 30.9,-51 28.06,-51 25.23,-48.17 25.23,-45.33 25.23,-45.33 25.23,-39.67 25.23,-39.67 25.23,-36.83 28.06,-34 30.9,-34 30.9,-34 90.64,-34 90.64,-34 93.48,-34 96.31,-36.83 96.31,-39.67 96.31,-39.67 96.31,-45.33 96.31,-45.33 96.31,-48.17 93.48,-51 90.64,-51"/>
<text text-anchor="middle" x="60.77" y="-39.8" font-family="Helvetica,sans-Serif" font-size="9.00">tabIndicator.js</text>
</a>
</g>
</g>
<!-- src/utils/logger.js -->
<g id="node24" class="node">
<title>src/utils/logger.js</title>
<g id="a_node24"><a xlink:href="src/utils/logger.js" xlink:title="logger.js">
<path fill="#ccffcc" stroke="black" d="M180.14,-257C180.14,-257 137.47,-257 137.47,-257 134.64,-257 131.8,-254.17 131.8,-251.33 131.8,-251.33 131.8,-245.67 131.8,-245.67 131.8,-242.83 134.64,-240 137.47,-240 137.47,-240 180.14,-240 180.14,-240 182.97,-240 185.8,-242.83 185.8,-245.67 185.8,-245.67 185.8,-251.33 185.8,-251.33 185.8,-254.17 182.97,-257 180.14,-257"/>
<text text-anchor="middle" x="158.8" y="-245.8" font-family="Helvetica,sans-Serif" font-size="9.00">logger.js</text>
</a>
</g>
</g>
</g>
</svg>
