<?xml version="1.0" encoding="UTF-8" standalone="no"?><!DOCTYPE svg PUBLIC "-//W3C//DTD SVG 1.1//EN" "http://www.w3.org/Graphics/SVG/1.1/DTD/svg11.dtd">
<svg width="100%" height="100%" viewBox="0 0 16 22" version="1.1" 
  xmlns="http://www.w3.org/2000/svg" 
  xmlns:xlink="http://www.w3.org/1999/xlink" xml:space="preserve" 
  xmlns:serif="http://www.serif.com/" style="fill-rule:evenodd;clip-rule:evenodd;stroke-linejoin:round;stroke-miterlimit:2;">
  <path d="M0,21.336l0,-21.336l7.474,0c2.589,0 4.552,0.496 5.891,1.487c1.338,0.992 2.007,2.445 2.007,4.36c0,1.045 -0.268,1.966 -0.806,2.762c-0.537,0.797 -1.284,1.38 -2.242,1.751c1.094,0.274 1.956,0.826 2.587,1.656c0.63,0.831 0.945,1.847 0.945,3.048c0,2.052 -0.655,3.605 -1.964,4.661c-1.309,1.055 -3.175,1.592 -5.598,1.611l-8.294,0Zm4.396,-9.29l0,5.759l3.766,0c1.036,0 1.844,-0.247 2.426,-0.74c0.581,-0.494 0.872,-1.175 0.872,-2.044c0,-1.954 -1.012,-2.946 -3.034,-2.975l-4.03,0Zm0,-3.107l3.253,0c2.218,-0.039 3.327,-0.923 3.327,-2.652c0,-0.968 -0.281,-1.664 -0.843,-2.089c-0.561,-0.425 -1.448,-0.637 -2.659,-0.637l-3.078,0l0,5.378Z" style="fill-rule:nonzero;"/>
</svg>