<?xml version="1.0" encoding="UTF-8" standalone="no"?>
<!DOCTYPE svg PUBLIC "-//W3C//DTD SVG 1.1//EN" "http://www.w3.org/Graphics/SVG/1.1/DTD/svg11.dtd">
<svg width="100%" height="100%" viewBox="0 0 32 43" version="1.1" xmlns="http://www.w3.org/2000/svg" xmlns:xlink="http://www.w3.org/1999/xlink" xml:space="preserve" xmlns:serif="http://www.serif.com/" style="fill-rule:evenodd;clip-rule:evenodd;stroke-linejoin:round;stroke-miterlimit:2;">
    <g transform="matrix(1.20047,0,0,1.20047,-4.22998,-17.5736)">
        <g transform="matrix(50,0,0,50,0.34978,50.1858)">
            <path d="M0.063,0L0.063,-0.711L0.313,-0.711C0.399,-0.711 0.464,-0.694 0.509,-0.661C0.553,-0.628 0.576,-0.58 0.576,-0.516C0.576,-0.481 0.567,-0.451 0.549,-0.424C0.531,-0.398 0.506,-0.378 0.474,-0.366C0.511,-0.357 0.539,-0.338 0.56,-0.311C0.581,-0.283 0.592,-0.249 0.592,-0.209C0.592,-0.141 0.57,-0.089 0.526,-0.054C0.483,-0.019 0.421,-0.001 0.34,0L0.063,0ZM0.21,-0.31L0.21,-0.118L0.335,-0.118C0.37,-0.118 0.397,-0.126 0.416,-0.142C0.436,-0.159 0.445,-0.181 0.445,-0.21C0.445,-0.276 0.412,-0.309 0.344,-0.31L0.21,-0.31ZM0.21,-0.413L0.318,-0.413C0.392,-0.414 0.429,-0.444 0.429,-0.501C0.429,-0.534 0.42,-0.557 0.401,-0.571C0.382,-0.585 0.353,-0.592 0.313,-0.592L0.21,-0.592L0.21,-0.413Z" style="fill-rule:nonzero;"/>
        </g>
    </g>
</svg>
