<?xml version="1.0" encoding="UTF-8" standalone="no"?><!DOCTYPE svg PUBLIC "-//W3C//DTD SVG 1.1//EN" "http://www.w3.org/Graphics/SVG/1.1/DTD/svg11.dtd">
<svg width="100%" height="100%" viewBox="0 0 20 25" version="1.1" 
  xmlns="http://www.w3.org/2000/svg" 
  xmlns:xlink="http://www.w3.org/1999/xlink" xml:space="preserve" 
  xmlns:serif="http://www.serif.com/" style="fill-rule:evenodd;clip-rule:evenodd;stroke-linejoin:round;stroke-miterlimit:2;">
  <path d="M19.461,25l-19.461,0l0,-1.465l19.461,0l0,1.465Zm-1.964,-25l0,14.508c-0.01,2.012 -0.642,3.658 -1.898,4.938c-1.255,1.28 -2.957,1.998 -5.107,2.154l-0.747,0.03c-2.335,0 -4.196,-0.631 -5.583,-1.891c-1.387,-1.26 -2.091,-2.994 -2.11,-5.202l0,-14.537l2.784,0l0,14.449c0,1.544 0.425,2.743 1.275,3.598c0.85,0.854 2.061,1.282 3.634,1.282c1.592,0 2.811,-0.425 3.656,-1.275c0.845,-0.85 1.268,-2.047 1.268,-3.59l0,-14.464l2.828,0Z" style="fill-rule:nonzero;"/>
</svg>