<?xml version="1.0" encoding="UTF-8" standalone="no"?>
<!DOCTYPE svg PUBLIC "-//W3C//DTD SVG 1.1//EN" "http://www.w3.org/Graphics/SVG/1.1/DTD/svg11.dtd">
<svg width="100%" height="100%" viewBox="0 0 39 50" version="1.1" xmlns="http://www.w3.org/2000/svg" xmlns:xlink="http://www.w3.org/1999/xlink" xml:space="preserve" xmlns:serif="http://www.serif.com/" style="fill-rule:evenodd;clip-rule:evenodd;stroke-linejoin:round;stroke-miterlimit:2;">
    <g transform="matrix(1,0,0,1,-85,-7.10543e-15)">
        <g transform="matrix(1.20047,0,0,1.20047,-4.22998,-17.5736)">
            <g transform="matrix(0.833008,0,0,0.833008,32.1662,14.639)">
                <path d="M89.537,50L50.615,50L50.615,47.069L89.537,47.069L89.537,50ZM85.61,0L85.61,29.015C85.59,33.04 84.325,36.333 81.814,38.892C79.303,41.452 75.899,42.888 71.6,43.2L70.106,43.259C65.436,43.259 61.714,41.999 58.939,39.478C56.165,36.958 54.758,33.49 54.719,29.074L54.719,0L60.287,0L60.287,28.898C60.287,31.985 61.137,34.384 62.837,36.093C64.537,37.803 66.96,38.658 70.106,38.658C73.29,38.658 75.728,37.808 77.418,36.108C79.108,34.408 79.953,32.014 79.953,28.927L79.953,0L85.61,0Z" style="fill-rule:nonzero;"/>
            </g>
        </g>
    </g>
</svg>
